<?xml version="1.0"?>
<svg version="1.1" xmlns="http://www.w3.org/2000/svg" xmlns:xlink="http://www.w3.org/1999/xlink" width="2500" height="1900">
    <desc iVinci="yes" version="4.6" gridStep="20" showGrid="no" snapToGrid="no" codePlatform="0"/>
    <g id="Layer1" name="Layer 1" opacity="1">
        <g id="Shape1">
            <desc shapeID="1" type="0" basicInfo-basicType="0" basicInfo-roundedRectRadius="12" basicInfo-polygonSides="6" basicInfo-starPoints="5" bounding="rect(-145,-165,290,330)" text="" font-familyName="" font-pixelSize="20" font-bold="0" font-underline="0" font-alignment="1" strokeStyle="0" markerStart="0" markerEnd="0" shadowEnabled="0" shadowOffsetX="0" shadowOffsetY="2" shadowBlur="4" shadowOpacity="160" blurEnabled="0" blurRadius="4" transform="matrix(1,0,0,1,735,1715)" pers-center="0,0" pers-size="0,0" pers-start="0,0" pers-end="0,0" locked="0" mesh="" flag=""/>
            <path id="shapePath1" d="M590,1715 L590,1550 L685,1550 C821,1550 860,1574 860,1655 C860,1696 838,1744 813,1759 C797,1768 800,1774 838,1812 C861,1836 880,1859 880,1863 C880,1867 852,1870 818,1870 C761,1870 753,1867 720,1835 L685,1800 L688,1840 L692,1880 L641,1880 L590,1880 L590,1715 M750,1668 C750,1649 744,1645 720,1645 C696,1645 690,1649 690,1668 C690,1686 696,1690 720,1690 C744,1690 750,1686 750,1668 Z" style="stroke:none;fill-rule:nonzero;fill:#cc0000;fill-opacity:1;"/>
        </g>
        <g id="Shape2">
            <desc shapeID="2" type="0" basicInfo-basicType="0" basicInfo-roundedRectRadius="12" basicInfo-polygonSides="6" basicInfo-starPoints="5" bounding="rect(-131,-160,262,320)" text="" font-familyName="" font-pixelSize="20" font-bold="0" font-underline="0" font-alignment="1" strokeStyle="0" markerStart="0" markerEnd="0" shadowEnabled="0" shadowOffsetX="0" shadowOffsetY="2" shadowBlur="4" shadowOpacity="160" blurEnabled="0" blurRadius="4" transform="matrix(1,0,0,1,1049,1710)" pers-center="0,0" pers-size="0,0" pers-start="0,0" pers-end="0,0" locked="0" mesh="" flag=""/>
            <path id="shapePath2" d="M922,1736 C925,1610 926,1600 949,1576 C971,1552 981,1550 1050,1550 C1113,1550 1132,1554 1154,1571 C1180,1591 1180,1592 1180,1731 L1180,1870 L1135,1870 C1094,1870 1090,1868 1090,1845 C1090,1823 1086,1820 1055,1820 C1024,1820 1020,1823 1020,1845 C1020,1868 1017,1870 969,1870 L918,1870 L922,1736 M1090,1680 C1090,1641 1089,1640 1055,1640 C1021,1640 1020,1641 1020,1680 C1020,1719 1021,1720 1055,1720 C1089,1720 1090,1719 1090,1680 Z" style="stroke:none;fill-rule:nonzero;fill:#cc0000;fill-opacity:1;"/>
        </g>
        <g id="Shape3">
            <desc shapeID="3" type="0" basicInfo-basicType="0" basicInfo-roundedRectRadius="12" basicInfo-polygonSides="6" basicInfo-starPoints="5" bounding="rect(-45,-157.5,90,315)" text="" font-familyName="" font-pixelSize="20" font-bold="0" font-underline="0" font-alignment="1" strokeStyle="0" markerStart="0" markerEnd="0" shadowEnabled="0" shadowOffsetX="0" shadowOffsetY="2" shadowBlur="4" shadowOpacity="160" blurEnabled="0" blurRadius="4" transform="matrix(1,0,0,1,1305,1712.5)" pers-center="0,0" pers-size="0,0" pers-start="0,0" pers-end="0,0" locked="0" mesh="" flag=""/>
            <path id="shapePath3" d="M1260,1720 C1260,1638 1260,1567 1260,1563 C1260,1558 1280,1555 1305,1555 C1330,1555 1350,1558 1350,1563 C1350,1567 1350,1638 1350,1720 L1350,1870 L1305,1870 L1260,1870 L1260,1720 Z" style="stroke:none;fill-rule:nonzero;fill:#cc0000;fill-opacity:1;"/>
        </g>
        <g id="Shape4">
            <desc shapeID="4" type="0" basicInfo-basicType="0" basicInfo-roundedRectRadius="12" basicInfo-polygonSides="6" basicInfo-starPoints="5" bounding="rect(-110,-160,220,320)" text="" font-familyName="" font-pixelSize="20" font-bold="0" font-underline="0" font-alignment="1" strokeStyle="0" markerStart="0" markerEnd="0" shadowEnabled="0" shadowOffsetX="0" shadowOffsetY="2" shadowBlur="4" shadowOpacity="160" blurEnabled="0" blurRadius="4" transform="matrix(1,0,0,1,1540,1710)" pers-center="0,0" pers-size="0,0" pers-start="0,0" pers-end="0,0" locked="0" mesh="" flag=""/>
            <path id="shapePath4" d="M1430,1710 L1430,1550 L1480,1550 L1530,1550 L1530,1665 L1530,1780 L1590,1780 L1650,1780 L1650,1825 L1650,1870 L1540,1870 L1430,1870 L1430,1710 Z" style="stroke:none;fill-rule:nonzero;fill:#cc0000;fill-opacity:1;"/>
        </g>
        <g id="Shape5">
            <desc shapeID="5" type="0" basicInfo-basicType="0" basicInfo-roundedRectRadius="12" basicInfo-polygonSides="6" basicInfo-starPoints="5" bounding="rect(-130.289,-160,260.578,320)" text="" font-familyName="" font-pixelSize="20" font-bold="0" font-underline="0" font-alignment="1" strokeStyle="0" markerStart="0" markerEnd="0" shadowEnabled="0" shadowOffsetX="0" shadowOffsetY="2" shadowBlur="4" shadowOpacity="160" blurEnabled="0" blurRadius="4" transform="matrix(1,0,0,1,1811.71,1710)" pers-center="0,0" pers-size="0,0" pers-start="0,0" pers-end="0,0" locked="0" mesh="" flag=""/>
            <path id="shapePath5" d="M1690,1830 L1690,1791 L1767,1788 C1817,1786 1845,1781 1848,1773 C1850,1764 1839,1760 1808,1760 C1697,1760 1641,1648 1715,1574 C1737,1552 1747,1550 1835,1550 L1930,1550 L1930,1595 L1930,1640 L1860,1640 C1820,1640 1790,1644 1790,1650 C1790,1656 1808,1660 1829,1660 C1914,1660 1942,1689 1942,1774 C1941,1816 1937,1829 1915,1848 C1892,1868 1878,1870 1789,1870 L1690,1870 L1690,1830 Z" style="stroke:none;fill-rule:nonzero;fill:#cc0000;fill-opacity:1;"/>
        </g>
        <g id="Shape6">
            <desc shapeID="6" type="0" basicInfo-basicType="0" basicInfo-roundedRectRadius="12" basicInfo-polygonSides="6" basicInfo-starPoints="5" bounding="rect(-669.097,-735.5,1338.19,1471)" text="" font-familyName="" font-pixelSize="20" font-bold="0" font-underline="0" font-alignment="1" strokeStyle="0" markerStart="0" markerEnd="0" shadowEnabled="0" shadowOffsetX="0" shadowOffsetY="2" shadowBlur="4" shadowOpacity="160" blurEnabled="0" blurRadius="4" transform="matrix(1,0,0,1,1331.9,734.5)" pers-center="0,0" pers-size="0,0" pers-start="0,0" pers-end="0,0" locked="0" mesh="" flag=""/>
            <path id="shapePath6" d="M665,1436 C656,1392 676,1197 701,1085 C733,934 789,783 876,610 C1003,358 1109,237 1275,154 C1314,135 1368,113 1395,106 C1423,99 1444,89 1444,84 C1443,79 1439,58 1436,37 L1429,-1 L1492,2 L1555,5 L1564,48 C1572,87 1575,90 1605,90 C1694,90 1859,168 1969,262 L2001,290 L1976,316 C1952,342 1951,342 1934,325 C1876,268 1740,249 1644,284 C1582,308 1474,378 1435,422 C1419,440 1414,447 1426,437 C1454,414 1456,414 1486,459 C1510,497 1511,499 1495,529 C1487,546 1477,560 1473,560 C1470,560 1452,542 1433,520 C1414,498 1395,480 1391,480 C1379,480 1332,571 1310,636 C1250,810 1267,1071 1357,1340 C1376,1398 1394,1451 1397,1458 C1401,1467 1325,1470 1036,1470 L671,1470 L665,1436 Z" style="stroke:none;fill-rule:nonzero;fill:#cc0000;fill-opacity:1;"/>
        </g>
        <g id="Shape7">
            <desc shapeID="7" type="0" basicInfo-basicType="0" basicInfo-roundedRectRadius="12" basicInfo-polygonSides="6" basicInfo-starPoints="5" bounding="rect(-88.8535,-59.3738,177.707,118.748)" text="" font-familyName="" font-pixelSize="20" font-bold="0" font-underline="0" font-alignment="1" strokeStyle="0" markerStart="0" markerEnd="0" shadowEnabled="0" shadowOffsetX="0" shadowOffsetY="2" shadowBlur="4" shadowOpacity="160" blurEnabled="0" blurRadius="4" transform="matrix(1,0,0,1,1421.15,1279.37)" pers-center="0,0" pers-size="0,0" pers-start="0,0" pers-end="0,0" locked="0" mesh="" flag=""/>
            <path id="shapePath7" d="M1378,1333 C1368,1331 1356,1312 1350,1289 C1344,1267 1336,1242 1333,1234 C1329,1223 1341,1220 1394,1220 L1460,1220 L1485,1270 C1499,1297 1510,1324 1510,1330 C1510,1340 1413,1342 1378,1333 Z" style="stroke:none;fill-rule:nonzero;fill:#cc0000;fill-opacity:1;"/>
        </g>
        <g id="Shape8">
            <desc shapeID="8" type="0" basicInfo-basicType="0" basicInfo-roundedRectRadius="12" basicInfo-polygonSides="6" basicInfo-starPoints="5" bounding="rect(-84.576,-77.5408,169.152,155.082)" text="" font-familyName="" font-pixelSize="20" font-bold="0" font-underline="0" font-alignment="1" strokeStyle="0" markerStart="0" markerEnd="0" shadowEnabled="0" shadowOffsetX="0" shadowOffsetY="2" shadowBlur="4" shadowOpacity="160" blurEnabled="0" blurRadius="4" transform="matrix(1,0,0,1,591.576,1168.73)" pers-center="0,0" pers-size="0,0" pers-start="0,0" pers-end="0,0" locked="0" mesh="" flag=""/>
            <path id="shapePath8" d="M541,1243 L507,1239 L514,1187 C517,1158 520,1124 520,1112 C520,1089 521,1088 598,1095 C640,1099 676,1103 676,1104 C677,1104 673,1137 666,1175 L655,1245 L615,1246 C593,1247 560,1245 541,1243 Z" style="stroke:none;fill-rule:nonzero;fill:#cc0000;fill-opacity:1;"/>
        </g>
        <g id="Shape9">
            <desc shapeID="9" type="0" basicInfo-basicType="0" basicInfo-roundedRectRadius="12" basicInfo-polygonSides="6" basicInfo-starPoints="5" bounding="rect(-60.8494,-74.1533,121.699,148.306)" text="" font-familyName="" font-pixelSize="20" font-bold="0" font-underline="0" font-alignment="1" strokeStyle="0" markerStart="0" markerEnd="0" shadowEnabled="0" shadowOffsetX="0" shadowOffsetY="2" shadowBlur="4" shadowOpacity="160" blurEnabled="0" blurRadius="4" transform="matrix(1,0,0,1,1358.16,964.153)" pers-center="0,0" pers-size="0,0" pers-start="0,0" pers-end="0,0" locked="0" mesh="" flag=""/>
            <path id="shapePath9" d="M1350,1017 C1325,1005 1303,992 1300,988 C1293,979 1301,890 1309,890 C1312,890 1338,903 1365,918 C1413,944 1415,947 1418,993 C1422,1048 1417,1049 1350,1017 Z" style="stroke:none;fill-rule:nonzero;fill:#cc0000;fill-opacity:1;"/>
        </g>
        <g id="Shape10">
            <desc shapeID="10" type="0" basicInfo-basicType="0" basicInfo-roundedRectRadius="12" basicInfo-polygonSides="6" basicInfo-starPoints="5" bounding="rect(-82.0486,-79.5047,164.097,159.009)" text="" font-familyName="" font-pixelSize="20" font-bold="0" font-underline="0" font-alignment="1" strokeStyle="0" markerStart="0" markerEnd="0" shadowEnabled="0" shadowOffsetX="0" shadowOffsetY="2" shadowBlur="4" shadowOpacity="160" blurEnabled="0" blurRadius="4" transform="matrix(1,0,0,1,707.951,719.505)" pers-center="0,0" pers-size="0,0" pers-start="0,0" pers-end="0,0" locked="0" mesh="" flag=""/>
            <path id="shapePath10" d="M685,783 C658,775 631,765 627,761 C619,753 657,640 668,640 C688,640 790,687 790,696 C790,721 757,800 747,799 C740,799 713,792 685,783 Z" style="stroke:none;fill-rule:nonzero;fill:#cc0000;fill-opacity:1;"/>
        </g>
        <g id="Shape11">
            <desc shapeID="11" type="0" basicInfo-basicType="0" basicInfo-roundedRectRadius="12" basicInfo-polygonSides="6" basicInfo-starPoints="5" bounding="rect(-63.5,-80,127,160)" text="" font-familyName="" font-pixelSize="20" font-bold="0" font-underline="0" font-alignment="1" strokeStyle="0" markerStart="0" markerEnd="0" shadowEnabled="0" shadowOffsetX="0" shadowOffsetY="2" shadowBlur="4" shadowOpacity="160" blurEnabled="0" blurRadius="4" transform="matrix(1,0,0,1,1365.5,720)" pers-center="0,0" pers-size="0,0" pers-start="0,0" pers-end="0,0" locked="0" mesh="" flag=""/>
            <path id="shapePath11" d="M1348,757 L1302,715 L1321,678 C1332,657 1344,640 1348,640 C1352,641 1372,655 1392,673 L1429,705 L1418,753 C1412,779 1404,800 1401,800 C1398,799 1374,780 1348,757 Z" style="stroke:none;fill-rule:nonzero;fill:#cc0000;fill-opacity:1;"/>
        </g>
        <g id="Shape12">
            <desc shapeID="12" type="0" basicInfo-basicType="0" basicInfo-roundedRectRadius="12" basicInfo-polygonSides="6" basicInfo-starPoints="5" bounding="rect(-85,-80.5,170,161)" text="" font-familyName="" font-pixelSize="20" font-bold="0" font-underline="0" font-alignment="1" strokeStyle="0" markerStart="0" markerEnd="0" shadowEnabled="0" shadowOffsetX="0" shadowOffsetY="2" shadowBlur="4" shadowOpacity="160" blurEnabled="0" blurRadius="4" transform="matrix(1,0,0,1,915,358.5)" pers-center="0,0" pers-size="0,0" pers-start="0,0" pers-end="0,0" locked="0" mesh="" flag=""/>
            <path id="shapePath12" d="M878,407 C852,389 830,370 830,365 C830,359 848,337 869,316 L908,278 L954,309 C979,327 1000,343 1000,346 C1000,354 936,439 930,439 C927,439 904,424 878,407 Z" style="stroke:none;fill-rule:nonzero;fill:#cc0000;fill-opacity:1;"/>
        </g>
        <g id="Shape13">
            <desc shapeID="13" type="0" basicInfo-basicType="0" basicInfo-roundedRectRadius="12" basicInfo-polygonSides="6" basicInfo-starPoints="5" bounding="rect(-43.9653,-43.54,87.9306,87.08)" text="" font-familyName="" font-pixelSize="20" font-bold="0" font-underline="0" font-alignment="1" strokeStyle="0" markerStart="0" markerEnd="0" shadowEnabled="0" shadowOffsetX="0" shadowOffsetY="2" shadowBlur="4" shadowOpacity="160" blurEnabled="0" blurRadius="4" transform="matrix(1,0,0,1,1606.03,354.892)" pers-center="0,0" pers-size="0,0" pers-start="0,0" pers-end="0,0" locked="0" mesh="" flag=""/>
            <path id="shapePath13" d="M1575,370 C1555,331 1555,332 1598,321 C1649,306 1650,306 1650,339 C1650,359 1642,374 1628,384 C1597,406 1593,404 1575,370 Z" style="stroke:none;fill-rule:nonzero;fill:#cc0000;fill-opacity:1;"/>
        </g>
        <g id="Shape14">
            <desc shapeID="14" type="0" basicInfo-basicType="0" basicInfo-roundedRectRadius="12" basicInfo-polygonSides="6" basicInfo-starPoints="5" bounding="rect(-40,-32.7618,80,65.5237)" text="" font-familyName="" font-pixelSize="20" font-bold="0" font-underline="0" font-alignment="1" strokeStyle="0" markerStart="0" markerEnd="0" shadowEnabled="0" shadowOffsetX="0" shadowOffsetY="2" shadowBlur="4" shadowOpacity="160" blurEnabled="0" blurRadius="4" transform="matrix(1,0,0,1,1830,325.307)" pers-center="0,0" pers-size="0,0" pers-start="0,0" pers-end="0,0" locked="0" mesh="" flag=""/>
            <path id="shapePath14" d="M1828,353 C1793,349 1790,346 1790,319 C1790,293 1793,290 1810,294 C1821,297 1839,303 1850,306 C1863,309 1870,320 1870,336 C1870,349 1869,359 1868,358 C1866,357 1848,355 1828,353 Z" style="stroke:none;fill-rule:nonzero;fill:#cc0000;fill-opacity:1;"/>
        </g>
        <g id="Shape15">
            <desc shapeID="15" type="0" basicInfo-basicType="0" basicInfo-roundedRectRadius="12" basicInfo-polygonSides="6" basicInfo-starPoints="5" bounding="rect(-80,-69,160,138)" text="" font-familyName="" font-pixelSize="20" font-bold="0" font-underline="0" font-alignment="1" strokeStyle="0" markerStart="0" markerEnd="0" shadowEnabled="0" shadowOffsetX="0" shadowOffsetY="2" shadowBlur="4" shadowOpacity="160" blurEnabled="0" blurRadius="4" transform="matrix(1,0,0,1,1200,111)" pers-center="0,0" pers-size="0,0" pers-start="0,0" pers-end="0,0" locked="0" mesh="" flag=""/>
            <path id="shapePath15" d="M1148,141 C1132,119 1120,100 1120,97 C1120,94 1140,81 1164,67 L1208,42 L1244,79 C1264,99 1280,119 1280,122 C1280,129 1192,180 1181,180 C1178,180 1163,162 1148,141 Z" style="stroke:none;fill-rule:nonzero;fill:#cc0000;fill-opacity:1;"/>
        </g>
        <g id="Shape16">
            <desc shapeID="16" type="0" basicInfo-basicType="0" basicInfo-roundedRectRadius="12" basicInfo-polygonSides="6" basicInfo-starPoints="5" bounding="rect(-50.0714,-43.0493,100.143,86.0986)" text="" font-familyName="" font-pixelSize="20" font-bold="0" font-underline="0" font-alignment="1" strokeStyle="0" markerStart="0" markerEnd="0" shadowEnabled="0" shadowOffsetX="0" shadowOffsetY="2" shadowBlur="4" shadowOpacity="160" blurEnabled="0" blurRadius="4" transform="matrix(1,0,0,1,1850.07,134.638)" pers-center="0,0" pers-size="0,0" pers-start="0,0" pers-end="0,0" locked="0" mesh="" flag=""/>
            <path id="shapePath16" d="M1833,158 C1810,145 1800,130 1800,114 C1800,83 1811,84 1859,118 C1928,165 1904,202 1833,158 Z" style="stroke:none;fill-rule:nonzero;fill:#cc0000;fill-opacity:1;"/>
        </g>
    </g>
</svg>
